<?xml version="1.0" encoding="utf-8"?>
<!-- Generator: Adobe Illustrator 12.0.1, SVG Export Plug-In . SVG Version: 6.00 Build 51448)  -->
<!DOCTYPE svg PUBLIC "-//W3C//DTD SVG 1.1//EN" "http://www.w3.org/Graphics/SVG/1.1/DTD/svg11.dtd" [
	<!ENTITY ns_svg "http://www.w3.org/2000/svg">
	<!ENTITY ns_xlink "http://www.w3.org/1999/xlink">
]>
<svg  version="1.1" id="Layer_1" xmlns="&ns_svg;" xmlns:xlink="&ns_xlink;" width="278.072" height="279"
	 viewBox="0 0 278.072 279" overflow="visible" enable-background="new 0 0 278.072 279" xml:space="preserve">
<g>
	<path fill="none" stroke="#000000" stroke-width="2" d="M171.665,172.093c53.798-53.797,82.151-112.667,63.328-131.489
		c-19.709-19.708-78.578,10.415-131.488,63.327c-53.797,53.796-82.15,112.665-63.328,131.487
		C59,254.241,117.868,225.889,171.665,172.093z"/>
	<g>
		
			<ellipse transform="matrix(-0.6428 0.766 -0.766 -0.6428 334.557 124.9225)" fill="none" stroke="#000000" stroke-width="2" cx="138.153" cy="140.464" rx="48.197" ry="137.754"/>
		<ellipse fill="none" stroke="#000000" stroke-width="2" cx="138.92" cy="140.095" rx="137.755" ry="48.198"/>
		<ellipse fill="none" stroke="#000000" stroke-width="2" cx="137.323" cy="139" rx="48.198" ry="137.756"/>
	</g>
</g>
<rect x="86.142" y="88.021" fill="#FFFFFF" width="45.692" height="110.786"/>
<rect x="139.08" y="88.02" width="45.691" height="110.788"/>
<polygon points="83.962,61.868 136.45,49.606 189.584,61.653 189.584,74.346 136.667,64.019 83.962,74.99 "/>
<polygon fill="#FFFFFF" points="85.038,66.03 134.998,77.178 189.895,65.907 135.806,53.477 "/>
<g>
	<g>
		<path fill="#FFFFFF" d="M186.705,206.213V75.658l-50.526,11.675l-0.001,131.423l1.272-0.294l0.032,12.777l6.136-1.672v-12.53
			l37.284-8.613l-0.018,14.525l5.827-1.678v-15.059H186.705z M178.632,177.993c0,11.396-10.997,14.388-10.997,14.388l-11.467,3.116
			c-10.996,2.992-10.996-8.404-10.996-8.404v-6.834c0-11.396,10.996-14.387,10.996-14.387l11.467-3.12
			c10.997-2.989,10.997,8.406,10.997,8.406V177.993z M178.632,142.341c0,11.396-10.997,14.384-10.997,14.384l-11.467,3.119
			c-10.996,2.992-10.996-8.403-10.996-8.403v-6.838c0-11.396,10.996-14.384,10.996-14.384l11.467-3.12
			c10.998-2.99,10.998,8.404,10.998,8.404L178.632,142.341z M178.633,106.394c0,11.396-10.998,14.387-10.998,14.387l-11.467,3.12
			c-10.996,2.991-10.996-8.403-10.996-8.403v-6.839c0-11.396,10.996-14.386,10.996-14.386l11.467-3.118
			c10.998-2.991,10.998,8.404,10.998,8.404V106.394z"/>
	</g>
	<g>
		<path fill="none" stroke="#000000" stroke-width="2" d="M186.705,206.213V75.658l-50.526,11.675l-0.001,131.423l1.272-0.294
			l0.032,12.777l6.136-1.672v-12.53l37.284-8.613l-0.018,14.525l5.827-1.678v-15.059H186.705z M178.632,177.993
			c0,11.396-10.997,14.388-10.997,14.388l-11.467,3.116c-10.996,2.992-10.996-8.404-10.996-8.404v-6.834
			c0-11.396,10.996-14.387,10.996-14.387l11.467-3.12c10.997-2.989,10.997,8.406,10.997,8.406V177.993z M178.632,142.341
			c0,11.396-10.997,14.384-10.997,14.384l-11.467,3.119c-10.996,2.992-10.996-8.403-10.996-8.403v-6.838
			c0-11.396,10.996-14.384,10.996-14.384l11.467-3.12c10.998-2.99,10.998,8.404,10.998,8.404L178.632,142.341z M178.633,106.394
			c0,11.396-10.998,14.387-10.998,14.387l-11.467,3.12c-10.996,2.991-10.996-8.403-10.996-8.403v-6.839
			c0-11.396,10.996-14.386,10.996-14.386l11.467-3.118c10.998-2.991,10.998,8.404,10.998,8.404V106.394z"/>
	</g>
</g>
<polygon points="83.962,75.42 136.45,87.683 189.584,75.635 189.584,62.944 136.667,73.27 83.962,62.298 "/>
<polygon points="85.984,206.213 85.984,221.271 91.812,222.949 91.794,206.213 "/>
<polygon points="130.343,215.939 130.343,230.997 136.519,232.531 136.519,215.939 "/>
<path d="M127.507,115.497c0,0,0,11.395-10.997,8.403l-11.468-3.12c0,0-10.995-2.992-10.995-14.387v-6.835c0,0,0-11.396,10.995-8.404
	l11.468,3.118c0,0,10.997,2.99,10.997,14.386V115.497z M127.507,151.44c0,0,0,11.395-10.998,8.403l-11.467-3.119
	c0,0-10.995-2.989-10.995-14.384v-6.839c0,0,0-11.395,10.995-8.404l11.468,3.12c0,0,10.997,2.989,10.997,14.384V151.44z
	 M127.507,187.093c0,0,0,11.396-10.998,8.404l-11.467-3.116c0,0-10.995-2.992-10.995-14.388v-6.835c0,0,0-11.396,10.995-8.406
	l11.467,3.12c0,0,10.998,2.991,10.998,14.387V187.093z M85.974,151.412v55.672l50.528,11.672V87.333L85.975,75.658L85.974,151.412"
	/>
<rect fill="none" width="278.072" height="279"/>
<polygon fill="#FFFFFF" points="137.186,216.406 137.127,230.275 138.749,229.875 139.173,215.053 "/>
<path fill="#FFFFFF" d="M119.026,234.944"/>
</svg>
